<svg width="24" height="25" viewBox="0 0 24 25" xmlns="http://www.w3.org/2000/svg">
	<path d="M11.25 19.5555C11.25 19.1413 11.5858 18.8055 12 18.8055H18C18.1381 18.8055 18.25 18.6936 18.25 18.5555L18.25 6.55554C18.25 6.41747 18.1381 6.30554 18 6.30554L12 6.30554C11.5858 6.30554 11.25 5.96976 11.25 5.55554C11.25 5.14133 11.5858 4.80554 12 4.80554H18C18.9665 4.80554 19.75 5.58904 19.75 6.55554V18.5555C19.75 19.522 18.9665 20.3055 18 20.3055H12C11.5858 20.3055 11.25 19.9698 11.25 19.5555Z"/>
	<path d="M15.6116 13.6708C15.6116 14.223 15.1639 14.6708 14.6116 14.6708H9.75562C9.73269 15.0262 9.70399 15.3813 9.66951 15.7361L9.63985 16.0413C9.59162 16.5375 9.06466 16.8347 8.61504 16.6192C6.78712 15.7432 5.13234 14.5444 3.73028 13.0805L3.70032 13.0493C3.43323 12.7704 3.43323 12.3306 3.70032 12.0517L3.73028 12.0204C5.13234 10.5566 6.78712 9.3578 8.61504 8.48179C9.06466 8.26631 9.59162 8.5635 9.63985 9.05974L9.66951 9.36494C9.70399 9.71967 9.73269 10.0748 9.75562 10.4302L14.6116 10.4302C15.1639 10.4302 15.6116 10.878 15.6116 11.4302V13.6708Z"/>
</svg>
